{"asset":{"generator":"3D Builder","version":"2.0"},"scene":0,"scenes":[{"nodes":[0]}],"nodes":[{"mesh":0,"matrix":[-0.00047414985601790249,8.76943304319866E-5,0.00087606575107201934,0,-0.0005041749682277441,0.00078868871787562966,-0.00035182011197321117,0,-0.00072179589187726378,-0.000608505797572434,-0.00032974383793771267,0,8.7530504970345646E-5,-6.9558875111397356E-5,0.00019988199346698821,1]}],"meshes":[{"primitives":[{"attributes":{"POSITION":0,"TEXCOORD_0":1},"mode":4,"indices":2,"material":0}]}],"materials":[{"pbrMetallicRoughness":{"baseColorFactor":[1,1,1,1],"metallicFactor":0,"roughnessFactor":1,"baseColorTexture":{"index":0,"texCoord":0}},"alphaMode":"OPAQUE"}],"textures":[{"source":0,"sampler":0}],"images":[{"uri":"1349.png"}],"samplers":[{"magFilter":9729,"wrapS":10497,"wrapT":10497}],"accessors":[{"bufferView":0,"byteOffset":0,"count":1628,"componentType":5126,"type":"VEC3","min":[-0.34026503562927246,-0.34001803398132324,-0.34001803398132324],"max":[0.34026503562927246,0.34001803398132324,0.34001803398132324]},{"bufferView":1,"byteOffset":0,"count":1628,"componentType":5126,"type":"VEC2"},{"bufferView":2,"byteOffset":0,"count":9216,"componentType":5125,"type":"SCALAR"}],"bufferViews":[{"buffer":0,"byteOffset":0,"byteLength":19536,"byteStride":12,"target":34962},{"buffer":0,"byteOffset":19536,"byteLength":13024,"byteStride":8,"target":34962},{"buffer":0,"byteOffset":32560,"byteLength":36864,"target":34963}],"buffers":[{"byteLength":69424,"uri":"Untitled.bin"}]}